<svg xmlns="http://www.w3.org/2000/svg" xmlns:xlink="http://www.w3.org/1999/xlink" version="1.1" x="0px" y="0px" viewBox="0 0 48 60" enable-background="new 0 0 48 48" xml:space="preserve"><g><path fill="none" stroke="#000000" stroke-width="2" stroke-miterlimit="10" d="M13.1,8.3c3.5-2.4,7.7-3.8,12.2-3.8   c11.8,0,21.4,9.5,21.4,21.1s-9.6,21.1-21.4,21.1C15.1,46.7,6.5,39.6,4.4,30"/><path fill="none" stroke="#000000" stroke-width="2" stroke-miterlimit="10" d="M16.7,10.2C19,6.7,22,4.5,25.3,4.5   c6.9,0,12.5,9.5,12.5,21.1s-5.6,21.1-12.5,21.1c-5.5,0-10.2-6.1-11.9-14.5"/><line fill="none" stroke="#000000" stroke-width="2" stroke-miterlimit="10" x1="25.3" y1="47" x2="25.3" y2="4.2"/><line fill="none" stroke="#000000" stroke-width="2" stroke-miterlimit="10" x1="20.3" y1="14.4" x2="43.7" y2="14.4"/><line fill="none" stroke="#000000" stroke-width="2" stroke-miterlimit="10" x1="19.6" y1="25.6" x2="47" y2="25.6"/><line fill="none" stroke="#000000" stroke-width="2" stroke-miterlimit="10" x1="7" y1="36.7" x2="43.7" y2="36.7"/><g><path fill="none" stroke="#000000" stroke-width="2" stroke-miterlimit="10" d="M16.7,14.3c1.1,1.1,1.1,2.9,0,4.1l-8.1,8    c-1.1,1.1-3,1.1-4.1,0c-1.1-1.1-1.1-2.9,0-4.1l-1.8-1.8c-2.3-2.3-2.3-6,0-8.3s6.1-2.3,8.4,0l1.8,1.8C12.9,14,15.3,12.9,16.7,14.3z    "/><path fill="none" stroke="#000000" stroke-width="2" stroke-miterlimit="10" d="M2.8,12.2c-0.7-0.7-1.2-1.3-1.3-2.1    C1.5,9.3,1.7,8.7,2.1,8c1.3-2.3,4-3.7,6.7-3.4c2,0.2,4,1.4,5.9,0.9c2-0.4,3.4-2.5,3-4.5"/><g><line fill="none" stroke="#000000" stroke-width="2" stroke-miterlimit="10" x1="13" y1="29.2" x2="9.4" y2="25.6"/><line fill="none" stroke="#000000" stroke-width="2" stroke-miterlimit="10" x1="15.2" y1="27.1" x2="11.6" y2="23.5"/><line fill="none" stroke="#000000" stroke-width="2" stroke-miterlimit="10" x1="17.4" y1="24.9" x2="13.8" y2="21.3"/><line fill="none" stroke="#000000" stroke-width="2" stroke-miterlimit="10" x1="19.6" y1="22.7" x2="16" y2="19.1"/></g></g></g><text x="0" y="63" fill="#000000" font-size="5px" font-weight="bold" font-family="'Helvetica Neue', Helvetica, Arial-Unicode, Arial, Sans-serif">Created by Creative Stall</text><text x="0" y="68" fill="#000000" font-size="5px" font-weight="bold" font-family="'Helvetica Neue', Helvetica, Arial-Unicode, Arial, Sans-serif">from the Noun Project</text></svg>